<svg width="238" height="189" viewBox="0 0 238 189" fill="none" xmlns="http://www.w3.org/2000/svg">
<path fill-rule="evenodd" clip-rule="evenodd" d="M16.9712 113.5L133.885 46V71L16.9712 138.5V113.5Z" fill="#94A3B8"/>
<path fill-rule="evenodd" clip-rule="evenodd" d="M133.885 1L16.9712 68.5V93.5L133.885 26V1Z" fill="#94A3B8"/>
<path fill-rule="evenodd" clip-rule="evenodd" d="M138.215 48.5L21.3013 116V141L138.215 73.5V48.5Z" fill="#94A3B8"/>
<path fill-rule="evenodd" clip-rule="evenodd" d="M99.2437 116L216.157 48.5V73.5L99.2437 141V116Z" fill="#94A3B8"/>
<path fill-rule="evenodd" clip-rule="evenodd" d="M103.574 163.5L220.487 96V121L103.574 188.5V163.5Z" fill="#94A3B8"/>
<path fill-rule="evenodd" clip-rule="evenodd" d="M220.487 51L103.574 118.5V143.5L220.487 76V51Z" fill="#94A3B8"/>
<path fill-rule="evenodd" clip-rule="evenodd" d="M133.885 46C144.646 39.7871 150.026 31.6444 150.027 23.5015V48.5015C150.026 56.6444 144.646 64.7871 133.885 71V46Z" fill="#94A3B8"/>
<path fill-rule="evenodd" clip-rule="evenodd" d="M150.027 23.5015C150.027 20.729 149.403 17.9565 148.156 15.2601V40.2601C149.403 42.9565 150.027 45.729 150.027 48.5015V23.5015Z" fill="#94A3B8"/>
<path fill-rule="evenodd" clip-rule="evenodd" d="M148.157 15.2601C145.74 10.0362 140.983 5.09823 133.885 1V26C140.983 30.0982 145.74 35.0362 148.157 40.2601V15.2601Z" fill="#94A3B8"/>
<path fill-rule="evenodd" clip-rule="evenodd" d="M133.885 1C133.885 46 25.6314 108.5 16.9712 113.5V138.5C25.6314 133.5 133.885 71 133.885 26V1Z" fill="#94A3B8"/>
<path fill-rule="evenodd" clip-rule="evenodd" d="M2.69922 99.24C5.1155 104.464 9.8728 109.402 16.9711 113.5V138.5C9.8728 134.402 5.1155 129.464 2.69922 124.24V99.24Z" fill="#94A3B8"/>
<path fill-rule="evenodd" clip-rule="evenodd" d="M16.9712 113.5C25.6314 108.5 133.885 46 133.885 1V26C133.885 71 25.6314 133.5 16.9712 138.5V113.5Z" fill="#94A3B8"/>
<path fill-rule="evenodd" clip-rule="evenodd" d="M16.971 68.5C6.21007 74.7128 0.829278 82.8556 0.828613 90.9985V115.998C0.829278 107.856 6.21007 99.7128 16.971 93.5V68.5Z" fill="#94A3B8"/>
<path fill-rule="evenodd" clip-rule="evenodd" d="M0.828613 90.9985C0.828387 93.771 1.45187 96.5436 2.69906 99.2399V124.24C1.45187 121.544 0.828387 118.771 0.828613 115.999V90.9985Z" fill="#94A3B8"/>
<path fill-rule="evenodd" clip-rule="evenodd" d="M216.157 48.5C209.059 44.4018 200.506 41.6552 191.458 40.2601V65.2601C200.506 66.6552 209.059 69.4018 216.157 73.5V48.5Z" fill="#94A3B8"/>
<path fill-rule="evenodd" clip-rule="evenodd" d="M191.458 40.2601C173.071 37.4252 152.64 40.1718 138.215 48.5V73.5C152.64 65.1718 173.071 62.4252 191.458 65.2601V40.2601Z" fill="#94A3B8"/>
<path fill-rule="evenodd" clip-rule="evenodd" d="M21.3013 116C28.3996 120.098 36.9525 122.845 46.0005 124.24V149.24C36.9525 147.845 28.3996 145.098 21.3013 141V116Z" fill="#94A3B8"/>
<path fill-rule="evenodd" clip-rule="evenodd" d="M46.0005 124.24C64.3873 127.075 84.8187 124.328 99.2436 116V141C84.8187 149.328 64.3873 152.075 46.0005 149.24V124.24Z" fill="#94A3B8"/>
<path fill-rule="evenodd" clip-rule="evenodd" d="M220.487 96C231.248 89.7871 236.629 81.6444 236.63 73.5015V98.5015C236.629 106.644 231.248 114.787 220.487 121V96Z" fill="#94A3B8"/>
<path fill-rule="evenodd" clip-rule="evenodd" d="M236.629 73.5015C236.629 70.729 236.006 67.9565 234.759 65.2601V90.2601C236.006 92.9565 236.629 95.729 236.629 98.5015V73.5015Z" fill="#94A3B8"/>
<path fill-rule="evenodd" clip-rule="evenodd" d="M234.759 65.2601C232.343 60.0362 227.586 55.0982 220.487 51V76C227.586 80.0982 232.343 85.0362 234.759 90.2601V65.2601Z" fill="#94A3B8"/>
<path fill-rule="evenodd" clip-rule="evenodd" d="M220.487 51C220.487 96 112.234 158.5 103.574 163.5V188.5C112.234 183.5 220.487 121 220.487 76V51Z" fill="#94A3B8"/>
<path fill-rule="evenodd" clip-rule="evenodd" d="M89.3018 149.24C91.718 154.464 96.4753 159.402 103.574 163.5V188.5C96.4753 184.402 91.718 179.464 89.3018 174.24V149.24Z" fill="#94A3B8"/>
<path fill-rule="evenodd" clip-rule="evenodd" d="M103.574 163.5C112.234 158.5 220.487 96 220.487 51V76C220.487 121 112.234 183.5 103.574 188.5V163.5Z" fill="#94A3B8"/>
<path fill-rule="evenodd" clip-rule="evenodd" d="M103.574 118.5C92.8126 124.713 87.4318 132.856 87.4312 140.998V165.998C87.4318 157.856 92.8126 149.713 103.574 143.5V118.5Z" fill="#94A3B8"/>
<path fill-rule="evenodd" clip-rule="evenodd" d="M87.4312 140.999C87.4309 143.771 88.0544 146.544 89.3016 149.24V174.24C88.0544 171.544 87.4309 168.771 87.4312 165.999V140.999Z" fill="#94A3B8"/>
<path d="M220.487 96C234.912 87.6718 239.669 75.8757 234.759 65.2601C232.343 60.0362 227.585 55.0982 220.487 51C220.487 90.375 137.606 143.148 111.084 159.076C107.381 161.3 104.777 162.805 103.65 163.456L220.487 96Z" fill="#94A3B8"/>
<path fill-rule="evenodd" clip-rule="evenodd" d="M16.971 113.5L16.9776 113.496C25.6865 108.468 133.884 45.9885 133.884 1L16.971 68.5C2.54616 76.8282 -2.21114 88.6243 2.69906 99.2399C5.11534 104.464 9.87264 109.402 16.971 113.5ZM216.157 48.5C209.058 44.4018 200.506 41.6551 191.458 40.2601C173.071 37.4252 152.639 40.1718 138.215 48.5L21.3011 116C28.3995 120.098 36.9523 122.845 46.0003 124.24C64.3871 127.075 84.8186 124.328 99.2434 116L216.157 48.5ZM103.574 163.5L103.581 163.496L103.65 163.456C104.777 162.805 107.381 161.3 111.084 159.076C137.606 143.148 220.487 90.375 220.487 51L103.574 118.5C89.1487 126.828 84.3914 138.624 89.3016 149.24C91.7179 154.464 96.4752 159.402 103.574 163.5Z" fill="#CBD5E1"/>
<path d="M133.884 46C148.309 37.6718 153.067 25.8757 148.156 15.2601C145.74 10.0362 140.983 5.09823 133.884 1C133.884 45.9885 25.6865 108.468 16.9776 113.496L133.884 46Z" fill="#94A3B8"/>
<path d="M16.971 113.5C9.87264 109.402 5.11534 104.464 2.69906 99.2399C-2.21114 88.6243 2.54616 76.8282 16.971 68.5L133.884 1M16.971 113.5L16.9776 113.496M16.971 113.5C16.9732 113.499 16.9754 113.497 16.9776 113.496M133.884 1C140.983 5.09823 145.74 10.0362 148.156 15.2601C153.067 25.8757 148.309 37.6718 133.884 46L16.9776 113.496M133.884 1C133.884 45.9885 25.6865 108.468 16.9776 113.496M103.574 163.5C96.4752 159.402 91.7179 154.464 89.3016 149.24C84.3914 138.624 89.1487 126.828 103.574 118.5L220.487 51M103.574 163.5L103.581 163.496M103.574 163.5C103.576 163.499 103.578 163.497 103.581 163.496M220.487 51C227.585 55.0982 232.343 60.0362 234.759 65.2601C239.669 75.8757 234.912 87.6718 220.487 96L103.65 163.456M220.487 51C220.487 90.375 137.606 143.148 111.084 159.076C107.381 161.3 104.777 162.805 103.65 163.456M103.581 163.496L103.65 163.456M103.581 163.496C103.603 163.483 103.626 163.47 103.65 163.456M216.157 48.5C209.058 44.4018 200.506 41.6551 191.458 40.2601C173.071 37.4252 152.639 40.1718 138.215 48.5L21.3011 116C28.3995 120.098 36.9523 122.845 46.0003 124.24C64.3871 127.075 84.8186 124.328 99.2434 116L216.157 48.5Z" stroke="#64748B"/>
</svg>
