<svg width="189" height="150" viewBox="0 0 189 150" fill="none" xmlns="http://www.w3.org/2000/svg">
<path fill-rule="evenodd" clip-rule="evenodd" d="M12.9136 90L106.444 36V56L12.9136 110V90Z" fill="#A3E635"/>
<path fill-rule="evenodd" clip-rule="evenodd" d="M106.444 0L12.9136 54V74L106.444 20V0Z" fill="#A3E635"/>
<path fill-rule="evenodd" clip-rule="evenodd" d="M109.909 38L16.3784 92V112L109.909 58V38Z" fill="#A3E635"/>
<path fill-rule="evenodd" clip-rule="evenodd" d="M78.7319 92L172.263 38V58L78.7319 112V92Z" fill="#A3E635"/>
<path fill-rule="evenodd" clip-rule="evenodd" d="M82.1963 130L175.727 76V96L82.1963 150V130Z" fill="#A3E635"/>
<path fill-rule="evenodd" clip-rule="evenodd" d="M175.727 40.0001L82.1963 94.0001V114L175.727 60.0001V40.0001Z" fill="#A3E635"/>
<path fill-rule="evenodd" clip-rule="evenodd" d="M106.445 36C115.054 31.0298 119.359 24.5155 119.359 18.0012V38.0012C119.359 44.5155 115.054 51.0298 106.445 56V36Z" fill="#A3E635"/>
<path fill-rule="evenodd" clip-rule="evenodd" d="M119.358 18.0012C119.358 15.7832 118.86 13.5652 117.862 11.4081V31.4081C118.86 33.5652 119.358 35.7832 119.358 38.0012V18.0012Z" fill="#A3E635"/>
<path fill-rule="evenodd" clip-rule="evenodd" d="M117.863 11.4081C115.93 7.22899 112.124 3.27858 106.445 0V20C112.124 23.2786 115.93 27.229 117.863 31.4081V11.4081Z" fill="#A3E635"/>
<path fill-rule="evenodd" clip-rule="evenodd" d="M106.444 0C106.444 36 19.8418 86 12.9136 90V110C19.8418 106 106.444 56 106.444 20V0Z" fill="#A3E635"/>
<path fill-rule="evenodd" clip-rule="evenodd" d="M1.49658 78.5919C3.4296 82.771 7.23545 86.7214 12.9141 90V110C7.23545 106.721 3.4296 102.771 1.49658 98.5919V78.5919Z" fill="#A3E635"/>
<path fill-rule="evenodd" clip-rule="evenodd" d="M12.9136 90C19.8418 86 106.444 36 106.444 0V20C106.444 56 19.8418 106 12.9136 110V90Z" fill="#A3E635"/>
<path fill-rule="evenodd" clip-rule="evenodd" d="M12.9139 54C4.30516 58.9703 0.000531718 65.4845 0 71.9988V91.9988C0.000531718 85.4845 4.30516 78.9703 12.9139 74V54Z" fill="#A3E635"/>
<path fill-rule="evenodd" clip-rule="evenodd" d="M4.92653e-08 71.9989C-0.000180991 74.2169 0.498605 76.4349 1.49636 78.592V98.592C0.498605 96.4349 -0.000180991 94.2169 4.92653e-08 91.9989V71.9989Z" fill="#A3E635"/>
<path fill-rule="evenodd" clip-rule="evenodd" d="M172.262 38C166.584 34.7214 159.741 32.5241 152.503 31.4081V51.4081C159.741 52.5241 166.584 54.7214 172.262 58V38Z" fill="#A3E635"/>
<path fill-rule="evenodd" clip-rule="evenodd" d="M152.504 31.408C137.794 29.1401 121.449 31.3374 109.909 37.9999V57.9999C121.449 51.3374 137.794 49.1401 152.504 51.408V31.408Z" fill="#A3E635"/>
<path fill-rule="evenodd" clip-rule="evenodd" d="M16.3784 92C22.0571 95.2786 28.8994 97.4759 36.1378 98.5919V118.592C28.8994 117.476 22.0571 115.279 16.3784 112V92Z" fill="#A3E635"/>
<path fill-rule="evenodd" clip-rule="evenodd" d="M36.1377 98.5919C50.8471 100.86 67.1923 98.6625 78.7321 92V112C67.1923 118.663 50.8471 120.86 36.1377 118.592V98.5919Z" fill="#A3E635"/>
<path fill-rule="evenodd" clip-rule="evenodd" d="M175.727 76C184.335 71.0298 188.64 64.5155 188.64 58.0012V78.0012C188.64 84.5155 184.335 91.0298 175.727 96V76Z" fill="#A3E635"/>
<path fill-rule="evenodd" clip-rule="evenodd" d="M188.641 58.0013C188.641 55.7833 188.142 53.5653 187.145 51.4082V71.4082C188.142 73.5653 188.641 75.7833 188.641 78.0013V58.0013Z" fill="#A3E635"/>
<path fill-rule="evenodd" clip-rule="evenodd" d="M187.144 51.4082C185.211 47.2291 181.405 43.2787 175.727 40.0001V60.0001C181.405 63.2787 185.211 67.2291 187.144 71.4082V51.4082Z" fill="#A3E635"/>
<path fill-rule="evenodd" clip-rule="evenodd" d="M175.727 40.0001C175.727 76.0001 89.1245 126 82.1963 130V150C89.1245 146 175.727 96.0001 175.727 60.0001V40.0001Z" fill="#A3E635"/>
<path fill-rule="evenodd" clip-rule="evenodd" d="M70.7783 118.592C72.7113 122.771 76.5172 126.721 82.1959 130V150C76.5172 146.721 72.7113 142.771 70.7783 138.592V118.592Z" fill="#A3E635"/>
<path fill-rule="evenodd" clip-rule="evenodd" d="M82.1963 130C89.1245 126 175.727 76.0001 175.727 40.0001V60.0001C175.727 96.0001 89.1245 146 82.1963 150V130Z" fill="#A3E635"/>
<path fill-rule="evenodd" clip-rule="evenodd" d="M82.1956 94C73.5869 98.9703 69.2823 105.484 69.2817 111.999V131.999C69.2823 125.484 73.5869 118.97 82.1956 114V94Z" fill="#A3E635"/>
<path fill-rule="evenodd" clip-rule="evenodd" d="M69.2817 111.999C69.2816 114.217 69.7803 116.435 70.7781 118.592V138.592C69.7803 136.435 69.2816 134.217 69.2817 131.999V111.999Z" fill="#A3E635"/>
<path d="M175.727 76C187.267 69.3375 191.072 59.9006 187.144 51.4081C185.211 47.229 181.405 43.2786 175.727 40C175.727 71.5 109.422 113.719 88.204 126.461C85.2421 128.24 83.1588 129.444 82.2572 129.965L175.727 76Z" fill="#A3E635"/>
<path fill-rule="evenodd" clip-rule="evenodd" d="M12.9139 90L12.9192 89.9969C19.8863 85.9745 106.445 35.9908 106.445 0L12.9139 54C1.37404 60.6625 -2.43181 70.0994 1.49636 78.5919C3.42938 82.771 7.23522 86.7214 12.9139 90ZM172.263 38C166.584 34.7214 159.742 32.5241 152.503 31.4081C137.794 29.1402 121.449 31.3375 109.909 38L16.378 92C22.0567 95.2786 28.899 97.4759 36.1374 98.5919C50.8468 100.86 67.192 98.6625 78.7318 92L172.263 38ZM82.1959 130L82.2017 129.997L82.2572 129.965C83.1588 129.444 85.2421 128.24 88.204 126.461C109.422 113.719 175.727 71.5 175.727 40L82.1959 94C70.6561 100.663 66.8502 110.099 70.7784 118.592C72.7114 122.771 76.5173 126.721 82.1959 130Z" fill="#ECFCCB"/>
<path d="M106.445 36C117.984 29.3375 121.79 19.9006 117.862 11.4081C115.929 7.22899 112.123 3.27858 106.445 0C106.445 35.9908 19.8863 85.9745 12.9192 89.9969L106.445 36Z" fill="#A3E635"/>
</svg>
