<svg width="740" height="557" viewBox="0 0 740 557" fill="none" xmlns="http://www.w3.org/2000/svg">
<path d="M186.385 186.539H553.154C654.435 186.539 736.539 104.366 736.539 3H553.154M186.385 186.539H3C3 85.1734 85.1042 3 186.385 3M186.385 186.539H369.77M553.154 3H186.385M553.154 3H369.77H186.385" stroke="#6B7280" stroke-width="5"/>
<path d="M553.154 370.079H186.385C85.1042 370.079 3 287.905 3 186.539H186.385M553.154 370.079H736.539C736.539 268.713 654.435 186.539 553.154 186.539M553.154 370.079H369.77M186.385 186.539H553.154M186.385 186.539H369.77H553.154" stroke="#6B7280" stroke-width="5"/>
<path d="M186.385 553.618H553.154C654.435 553.618 736.539 471.445 736.539 370.079H553.154M186.385 553.618H3C3 452.252 85.1042 370.079 186.385 370.079M186.385 553.618H369.77M553.154 370.079H186.385M553.154 370.079H369.77H186.385" stroke="#6B7280" stroke-width="5"/>
</svg>
