<svg width="734" height="552" viewBox="0 0 734 552" fill="none" xmlns="http://www.w3.org/2000/svg">
<path d="M366.77 184.157H550.154C651.435 184.157 733.539 101.984 733.539 0.61792H550.154H366.77H183.385C82.1042 0.61792 0 82.7913 0 184.157H183.385H366.77Z" fill="url(#paint0_linear_12_14)"/>
<path d="M366.77 367.697H183.385C82.1042 367.697 0 285.523 0 184.157H183.385H366.77H550.154C651.435 184.157 733.539 266.331 733.539 367.697H550.154H366.77Z" fill="url(#paint1_linear_12_14)"/>
<path d="M366.77 551.236H550.154C651.435 551.236 733.539 469.062 733.539 367.697H550.154H366.77H183.385C82.1042 367.697 0 449.87 0 551.236H183.385H366.77Z" fill="url(#paint2_linear_12_14)"/>
<defs>
<linearGradient id="paint0_linear_12_14" x1="-2.73265e-06" y1="184.157" x2="733.539" y2="0.617896" gradientUnits="userSpaceOnUse">
<stop stop-color="#9CA3AF"/>
<stop offset="1" stop-color="#4B5563"/>
</linearGradient>
<linearGradient id="paint1_linear_12_14" x1="733.539" y1="367.697" x2="-1.1321e-05" y2="184.157" gradientUnits="userSpaceOnUse">
<stop stop-color="#9CA3AF"/>
<stop offset="1" stop-color="#4B5563"/>
</linearGradient>
<linearGradient id="paint2_linear_12_14" x1="-2.73265e-06" y1="551.236" x2="733.539" y2="367.697" gradientUnits="userSpaceOnUse">
<stop stop-color="#9CA3AF"/>
<stop offset="1" stop-color="#4B5563"/>
</linearGradient>
</defs>
</svg>
